<?xml version="1.0" encoding="UTF-8"?>
<svg version="1.1" xmlns="http://www.w3.org/2000/svg" width="225" height="225">
<path d="M0 0 C74.25 0 148.5 0 225 0 C225 74.25 225 148.5 225 225 C150.75 225 76.5 225 0 225 C0 150.75 0 76.5 0 0 Z " fill="#FEFEFE" transform="translate(0,0)"/>
<path d="M0 0 C1.2365332 0.65452148 1.2365332 0.65452148 2.49804688 1.32226562 C3.31853516 1.73154297 4.13902344 2.14082031 4.984375 2.5625 C9.77881459 4.97693845 14.39184369 7.59193523 19.06054688 10.25976562 C19.06054688 18.17976563 19.06054688 26.09976563 19.06054688 34.25976562 C21.00058594 33.75445312 22.940625 33.24914063 24.93945312 32.72851562 C26.83911956 32.24142167 28.73880229 31.75438913 30.63891602 31.26904297 C32.59150868 30.7678607 34.54187315 30.25802307 36.4921875 29.74804688 C37.73291016 29.43222656 38.97363281 29.11640625 40.25195312 28.79101562 C41.38834229 28.49775391 42.52473145 28.20449219 43.69555664 27.90234375 C52.54220618 26.21298863 54.38891046 27.44218984 63.06054688 32.25976562 C63.06054688 64.92976563 63.06054688 97.59976563 63.06054688 131.25976562 C52.67465521 137.02970544 52.67465521 137.02970544 45.06054688 135.25976562 C43.50376221 134.93081299 43.50376221 134.93081299 41.91552734 134.59521484 C38.43246017 133.83616767 34.96555532 133.02432492 31.49804688 132.19726562 C30.29857422 131.91560547 29.09910156 131.63394531 27.86328125 131.34375 C24.92793265 130.65376766 21.99408297 129.95741384 19.06054688 129.25976562 C19.06054688 137.17976562 19.06054688 145.09976563 19.06054688 153.25976562 C16.06992188 154.84789062 13.07929688 156.43601563 9.99804688 158.07226562 C9.06984131 158.56702393 8.14163574 159.06178223 7.18530273 159.5715332 C5.58929204 160.41515591 3.98364144 161.24068011 2.37109375 162.05224609 C-0.16590169 163.33092165 -0.16590169 163.33092165 -3.28710938 165.44335938 C-9.44066409 166.81885984 -13.98085393 163.4340274 -19.31445312 160.50976562 C-20.41917969 159.93226563 -21.52390625 159.35476562 -22.66210938 158.75976562 C-30.63868202 154.56053673 -30.63868202 154.56053673 -31.93945312 153.25976562 C-32.02671535 151.47905316 -32.04644354 149.69493422 -32.03710938 147.91210938 C-32.03388672 146.83251953 -32.03066406 145.75292969 -32.02734375 144.640625 C-32.01477539 142.93616211 -32.01477539 142.93616211 -32.00195312 141.19726562 C-31.99744141 140.05708984 -31.99292969 138.91691406 -31.98828125 137.7421875 C-31.9764506 134.91466211 -31.95996722 132.08723923 -31.93945312 129.25976562 C-32.81158447 129.47705322 -33.68371582 129.69434082 -34.58227539 129.91821289 C-37.84327494 130.72419796 -41.10666814 131.51856726 -44.37231445 132.30541992 C-45.78065585 132.64721274 -47.18791576 132.99349612 -48.59399414 133.34448242 C-50.62438192 133.85045995 -52.65821107 134.33974404 -54.69335938 134.82617188 C-56.52362671 135.27391968 -56.52362671 135.27391968 -58.39086914 135.73071289 C-65.91455829 136.85240772 -69.17745631 135.12376381 -75.93945312 131.25976562 C-75.93945312 98.58976562 -75.93945312 65.91976562 -75.93945312 32.25976562 C-67.58399529 27.6178446 -65.39193606 26.4759981 -56.93945312 28.25976562 C-56.01406738 28.4428125 -55.08868164 28.62585938 -54.13525391 28.81445312 C-51.24536356 29.41820841 -48.37461879 30.07903916 -45.50195312 30.75976562 C-44.52291016 30.98535156 -43.54386719 31.2109375 -42.53515625 31.44335938 C-38.94949565 32.27631696 -35.43344582 33.09510139 -31.93945312 34.25976562 C-31.93945312 26.33976562 -31.93945312 18.41976562 -31.93945312 10.25976562 C-28.92820313 8.67164063 -25.91695312 7.08351563 -22.81445312 5.44726562 C-21.87714355 4.95250732 -20.93983398 4.45774902 -19.97412109 3.94799805 C-18.38105629 3.10871247 -16.78219393 2.28037679 -15.17895508 1.46069336 C-12.74928789 0.21023776 -12.74928789 0.21023776 -9.91210938 -1.81835938 C-5.79935889 -3.09379842 -3.76511428 -1.85697483 0 0 Z " fill="#8C3123" transform="translate(118.939453125,30.740234375)"/>
<path d="M0 0 C0.92538574 0.18304688 1.85077148 0.36609375 2.80419922 0.5546875 C5.69408957 1.15844278 8.56483433 1.81927354 11.4375 2.5 C12.41654297 2.72558594 13.39558594 2.95117188 14.40429688 3.18359375 C17.98995747 4.01655133 21.5060073 4.83533577 25 6 C25 9.96 25 13.92 25 18 C25.88300781 18.12117188 26.76601562 18.24234375 27.67578125 18.3671875 C49.40074906 21.40074906 49.40074906 21.40074906 51 23 C51.07179964 24.51928038 51.08392007 26.04167482 51.0625 27.5625 C51.05347656 28.38878906 51.04445313 29.21507813 51.03515625 30.06640625 C51.02355469 30.70449219 51.01195313 31.34257813 51 32 C59.32830618 33.04103827 67.66436892 34.01933752 76 35 C76 47.21 76 59.42 76 72 C64.12 73.485 64.12 73.485 52 75 C52 77.97 52 80.94 52 84 C52.63091553 84.11069824 53.26183105 84.22139648 53.91186523 84.33544922 C56.75543499 84.83958547 59.59640597 85.3571018 62.4375 85.875 C63.43072266 86.04902344 64.42394531 86.22304687 65.44726562 86.40234375 C66.86362305 86.66337891 66.86362305 86.66337891 68.30859375 86.9296875 C69.18314209 87.08679199 70.05769043 87.24389648 70.95874023 87.40576172 C71.63235596 87.60186035 72.30597168 87.79795898 73 88 C73.33 88.66 73.66 89.32 74 90 C71.35689076 90.82236809 68.71104054 91.63296425 66.0625 92.4375 C65.32708984 92.66759766 64.59167969 92.89769531 63.83398438 93.13476562 C53.70355036 96.18716714 46.62236407 96.14289899 36.4375 93.0625 C34.92446289 92.62647461 34.92446289 92.62647461 33.38085938 92.18164062 C30.91627461 91.46913034 28.45749052 90.73660663 26 90 C25.67 93.63 25.34 97.26 25 101 C20.85955561 102.03157307 16.71540703 103.04613515 12.56713867 104.0456543 C11.15879728 104.38744711 9.75153737 104.73373049 8.34545898 105.0847168 C6.31507121 105.59069433 4.28124206 106.07997842 2.24609375 106.56640625 C1.02591553 106.86490479 -0.1942627 107.16340332 -1.45141602 107.47094727 C-8.97510516 108.5926421 -12.23800318 106.86399818 -19 103 C-19 70.33 -19 37.66 -19 4 C-10.64454216 -0.64192102 -8.45248293 -1.78376753 0 0 Z " fill="#E05243" transform="translate(62,59)"/>
<path d="M0 0 C0.99 0.33 1.98 0.66 3 1 C3 4.63 3 8.26 3 12 C3.66 12.33 4.32 12.66 5 13 C4.34 13 3.68 13 3 13 C3 20.92 3 28.84 3 37 C0.009375 38.588125 -2.98125 40.17625 -6.0625 41.8125 C-6.99070557 42.3072583 -7.91891113 42.8020166 -8.87524414 43.31176758 C-10.47125483 44.15539028 -12.07690544 44.98091448 -13.68945312 45.79248047 C-16.22644856 47.07115603 -16.22644856 47.07115603 -19.34765625 49.18359375 C-25.50121097 50.55909422 -30.0414008 47.17426178 -35.375 44.25 C-36.47972656 43.6725 -37.58445312 43.095 -38.72265625 42.5 C-46.6992289 38.3007711 -46.6992289 38.3007711 -48 37 C-48.08855161 34.3337397 -48.11524673 31.69352886 -48.09765625 29.02734375 C-48.0962413 28.22970108 -48.09482635 27.43205841 -48.09336853 26.61024475 C-48.08775316 24.05262565 -48.07519812 21.49509282 -48.0625 18.9375 C-48.05748698 17.20768355 -48.05292373 15.47786574 -48.04882812 13.74804688 C-48.03777875 9.49866447 -48.02050386 5.24934688 -48 1 C-47.0255896 1.28049194 -47.0255896 1.28049194 -46.03149414 1.56665039 C-43.0463603 2.41556524 -40.0547738 3.23912265 -37.0625 4.0625 C-36.04091797 4.35705078 -35.01933594 4.65160156 -33.96679688 4.95507812 C-27.58524638 6.68808705 -22.48326643 7.38932564 -16 6 C-14.96758179 5.78380005 -14.96758179 5.78380005 -13.91430664 5.56323242 C-11.9273183 5.10960058 -9.96610412 4.59889149 -8 4.0625 C-7.33355469 3.89298828 -6.66710937 3.72347656 -5.98046875 3.54882812 C-4.30107571 3.09905178 -2.64703616 2.55671503 -1 2 C-0.67 1.34 -0.34 0.68 0 0 Z " fill="#DE5142" transform="translate(135,147)"/>
<path d="M0 0 C0.495 20.295 0.495 20.295 1 41 C11.89 43.97 11.89 43.97 23 47 C23 47.66 23 48.32 23 49 C5.49719165 52.44721196 -7.46555292 51.76578729 -25 48 C-25 36.12 -25 24.24 -25 12 C-21.9475 10.39125 -18.895 8.7825 -15.75 7.125 C-14.31672363 6.36920654 -14.31672363 6.36920654 -12.85449219 5.59814453 C-12.09297852 5.19708496 -11.33146484 4.79602539 -10.546875 4.3828125 C-9.77182617 3.97434082 -8.99677734 3.56586914 -8.19824219 3.14501953 C-7.47282227 2.76716309 -6.74740234 2.38930664 -6 2 C-5.2874707 1.62085449 -4.57494141 1.24170898 -3.84082031 0.85107422 C-2 0 -2 0 0 0 Z " fill="#8B3021" transform="translate(112,29)"/>
<path d="M0 0 C8.68460042 2.89486681 8.68460042 2.89486681 11 5 C11.74162463 8.13498511 11.63063821 11.22140556 11.56762695 14.4284668 C11.56872215 15.87752914 11.56872215 15.87752914 11.56983948 17.35586548 C11.56635144 20.55421785 11.52743181 23.7511203 11.48828125 26.94921875 C11.47895748 29.16452743 11.47183931 31.3798464 11.46684265 33.59516907 C11.44773874 39.42994582 11.39860796 45.26410164 11.34332275 51.09863281 C11.29220385 57.05069579 11.2693443 63.00285897 11.24414062 68.95507812 C11.19049312 80.63699178 11.10513872 92.31844429 11 104 C9.54462432 104.83848804 8.08559627 105.67063934 6.625 106.5 C5.81289062 106.9640625 5.00078125 107.428125 4.1640625 107.90625 C2 109 2 109 0 109 C0 73.03 0 37.06 0 0 Z " fill="#E05243" transform="translate(171,58)"/>
<path d="M0 0 C0 35.97 0 71.94 0 109 C-8.68460042 106.10513319 -8.68460042 106.10513319 -11 104 C-11.74162463 100.86501489 -11.63063821 97.77859444 -11.56762695 94.5715332 C-11.56835709 93.60549164 -11.56908722 92.63945007 -11.56983948 91.64413452 C-11.56635144 88.44578215 -11.52743181 85.2488797 -11.48828125 82.05078125 C-11.47895748 79.83547257 -11.47183931 77.6201536 -11.46684265 75.40483093 C-11.44773874 69.57005418 -11.39860796 63.73589836 -11.34332275 57.90136719 C-11.29220385 51.94930421 -11.2693443 45.99714103 -11.24414062 40.04492188 C-11.19049312 28.36300822 -11.10513872 16.68155571 -11 5 C-9.54462432 4.16151196 -8.08559627 3.32936066 -6.625 2.5 C-5.81289063 2.0359375 -5.00078125 1.571875 -4.1640625 1.09375 C-2 0 -2 0 0 0 Z " fill="#8C3122" transform="translate(54,58)"/>
<path d="M0 0 C4.4859375 2.10375 4.4859375 2.10375 9.0625 4.25 C10.45480835 4.9001709 10.45480835 4.9001709 11.87524414 5.56347656 C13.47313225 6.3167496 15.06249742 7.08824934 16.64501953 7.87329102 C18.93296118 9.0179727 18.93296118 9.0179727 21.14794922 9.76538086 C23.05859375 10.54296875 23.05859375 10.54296875 26 13 C27.05072069 17.01385584 27.02400221 20.93171931 27 25.0625 C27.02449219 26.14466797 27.04898438 27.22683594 27.07421875 28.34179688 C27.18248762 35.28349733 26.77308933 42.1034565 26 49 C22.60265718 48.21472065 19.20742742 47.42065119 15.8125 46.625 C14.37293945 46.29242188 14.37293945 46.29242188 12.90429688 45.953125 C11.50727539 45.62441406 11.50727539 45.62441406 10.08203125 45.2890625 C8.80162964 44.99056396 8.80162964 44.99056396 7.49536133 44.68603516 C5 44 5 44 0 42 C0 28.14 0 14.28 0 0 Z " fill="#DE5141" transform="translate(112,28)"/>
<path d="M0 0 C0 13.53 0 27.06 0 41 C-11 41 -11 41 -25 39 C-25 26.79 -25 14.58 -25 2 C-12 0 -12 0 0 0 Z " fill="#8C3123" transform="translate(112,92)"/>
<path d="M0 0 C3.75375 0.969375 7.5075 1.93875 11.375 2.9375 C13.14883057 3.39370728 13.14883057 3.39370728 14.95849609 3.85913086 C15.88742676 4.10026611 16.81635742 4.34140137 17.7734375 4.58984375 C18.72653809 4.83597412 19.67963867 5.08210449 20.66162109 5.33569336 C23 6 23 6 25 7 C25 20.53 25 34.06 25 48 C20.99148043 46.66382681 17.8749126 45.54961084 14.2578125 43.6171875 C13.50129395 43.21612793 12.74477539 42.81506836 11.96533203 42.40185547 C10.55936768 41.64606201 10.55936768 41.64606201 9.125 40.875 C6.11375 39.26625 3.1025 37.6575 0 36 C0 24.12 0 12.24 0 0 Z " fill="#8B3021" transform="translate(87,148)"/>
<path d="M0 0 C0.495 0.99 0.495 0.99 1 2 C-1.64310924 2.82236809 -4.28895946 3.63296425 -6.9375 4.4375 C-7.67291016 4.66759766 -8.40832031 4.89769531 -9.16601562 5.13476562 C-19.29644964 8.18716714 -26.37763593 8.14289899 -36.5625 5.0625 C-38.07553711 4.62647461 -38.07553711 4.62647461 -39.61914062 4.18164062 C-42.08411045 3.46901902 -44.54364518 2.74166769 -47 2 C-47 1.34 -47 0.68 -47 0 C-30.97469127 -3.25938483 -15.96525155 -4.37789288 0 0 Z " fill="#EFAAA3" transform="translate(135,147)"/>
<path d="M0 0 C0.82242188 0.23847656 1.64484375 0.47695312 2.4921875 0.72265625 C4.49757382 1.30561739 6.49920475 1.90147151 8.5 2.5 C8.5 3.16 8.5 3.82 8.5 4.5 C-4.39275936 7.03925389 -15.57057615 8.30163861 -28.625 6.125 C-29.76485352 5.93623291 -29.76485352 5.93623291 -30.92773438 5.74365234 C-32.79976725 5.40107203 -34.65296164 4.95860406 -36.5 4.5 C-36.83 3.84 -37.16 3.18 -37.5 2.5 C-34.33741949 1.65062123 -31.16940569 0.82351131 -28 0 C-26.6696875 -0.35771484 -26.6696875 -0.35771484 -25.3125 -0.72265625 C-16.11300558 -3.0901732 -9.09311654 -2.73978267 0 0 Z " fill="#5F1F18" transform="translate(126.5,73.5)"/>
<path d="M0 0 C0.33 0 0.66 0 1 0 C1 2.97 1 5.94 1 9 C2.65 9 4.3 9 6 9 C6 9.33 6 9.66 6 10 C4.35 10 2.7 10 1 10 C1 26.83 1 43.66 1 61 C0.67 61 0.34 61 0 61 C0 58.03 0 55.06 0 52 C-0.99 51.67 -1.98 51.34 -3 51 C-2.01 51 -1.02 51 0 51 C0 37.47 0 23.94 0 10 C-0.99 9.67 -1.98 9.34 -3 9 C-2.01 9 -1.02 9 0 9 C0 6.03 0 3.06 0 0 Z " fill="#B74233" transform="translate(112,82)"/>
</svg>
