<svg xmlns="http://www.w3.org/2000/svg" version="1.1" viewBox="0 0 1200 1200"><path d="m599.75-.313 2.278.007C612.982-.256 623.364.156 634 3l2.248.554c36.071 8.966 60.767 30.296 86.333 55.898l4.907 4.902c4.41 4.404 8.815 8.812 13.22 13.22 4.625 4.628 9.253 9.253 13.88 13.878 8.259 8.257 16.515 16.516 24.77 24.777 7.472 7.476 14.947 14.95 22.423 22.422a77372.79 77372.79 0 0 1 26.12 26.115c4.598 4.6 9.197 9.2 13.798 13.797 4.322 4.319 8.642 8.64 12.96 12.964a5309.08 5309.08 0 0 0 4.746 4.746 5158.14 5158.14 0 0 1 6.494 6.499l1.882 1.876c2.967 2.979 5.818 6.007 8.56 9.194 4.209 4.863 8.744 9.375 13.3 13.912l2.886 2.887c2.625 2.625 5.253 5.247 7.881 7.869 2.842 2.835 5.68 5.673 8.52 8.511 4.915 4.912 9.831 9.822 14.749 14.731a51786.31 51786.31 0 0 1 21.347 21.324A166290.575 166290.575 0 0 0 996.5 334.5l16.808 16.788 2.092 2.089c11.515 11.502 23.029 23.006 34.541 34.511 7.095 7.09 14.192 14.179 21.29 21.265 4.865 4.856 9.727 9.713 14.589 14.573 2.802 2.8 5.606 5.601 8.411 8.4 2.572 2.565 5.142 5.132 7.71 7.701 1.361 1.362 2.725 2.72 4.09 4.08 4.343 4.35 8.54 8.762 12.535 13.435 1.957 2.263 4.05 4.364 6.185 6.459l2.62 2.582 2.77 2.715c.973.96 1.945 1.922 2.917 2.884a3573.66 3573.66 0 0 0 12.27 12.1c24.82 24.342 42.977 49.817 51.672 83.918l.548 2.1c5.057 20.404 4.906 46.63-.548 66.9l-.602 2.329c-8.94 34.12-27.414 58.907-52.14 83.511l-3.458 3.453a9236.117 9236.117 0 0 1-7.39 7.373c-3.904 3.89-7.804 7.784-11.703 11.678a61853.502 61853.502 0 0 1-24.832 24.781 60080.899 60080.899 0 0 0-26.837 26.783c-3.87 3.865-7.743 7.728-11.617 11.59a9281.684 9281.684 0 0 0-7.239 7.225c-1.112 1.11-2.225 2.22-3.338 3.328-1.53 1.522-3.057 3.048-4.583 4.575l-2.582 2.575a171.66 171.66 0 0 0-5.99 6.61c-3.806 4.382-7.85 8.484-11.963 12.576l-2.44 2.441c-2.682 2.682-5.368 5.36-8.054 8.037l-5.791 5.787c-4.149 4.146-8.3 8.29-12.45 12.433a38238.967 38238.967 0 0 0-18.025 18.001c-9.757 9.75-19.516 19.499-29.277 29.246l-1.768 1.765a1003979.586 1003979.586 0 0 1-26.61 26.571l-1.766 1.764c-9.725 9.712-19.45 19.426-29.172 29.141-5.989 5.985-11.98 11.968-17.973 17.948-4.107 4.1-8.213 8.2-12.318 12.303a8562.425 8562.425 0 0 1-7.099 7.087 7258.23 7258.23 0 0 0-7.71 7.702l-2.246 2.236a230.621 230.621 0 0 0-11.43 12.325c-2.218 2.535-4.562 4.927-6.938 7.314l-1.486 1.497a3173.59 3173.59 0 0 1-4.853 4.872l-3.511 3.531c-3.82 3.84-7.644 7.676-11.47 11.51l-3.972 3.986c-6.224 6.243-12.45 12.484-18.68 18.722a14195.556 14195.556 0 0 0-21.448 21.524 9717.25 9717.25 0 0 1-16.653 16.701 3873.2 3873.2 0 0 0-9.911 9.948 2448.22 2448.22 0 0 1-9.345 9.362 759.284 759.284 0 0 0-3.393 3.412c-7.72 7.81-15.822 14.324-24.937 20.447l-2.396 1.613c-18.102 11.992-39.3 19.6-60.604 23.387l-3.103.555c-9.56 1.545-18.93 1.805-28.585 1.757l-2.404-.006c-11.845-.052-23.369-.381-34.908-3.306l-2.447-.618c-31.217-8.165-54.501-23.83-77.064-46.537a7210.86 7210.86 0 0 1-17.895-17.914c-4.563-4.578-9.133-9.147-13.703-13.718-7.666-7.67-15.326-15.344-22.983-23.024a26702.968 26702.968 0 0 0-23.598-23.64l-1.472-1.471-2.934-2.936-1.463-1.463-1.459-1.46a59233.61 59233.61 0 0 1-23.945-23.974l-8.137-8.147c-4.266-4.271-8.529-8.544-12.79-12.82-1.56-1.565-3.121-3.129-4.684-4.692a5045.18 5045.18 0 0 1-6.408-6.427l-1.856-1.854a183.043 183.043 0 0 1-8.648-9.292c-3.428-3.962-7.049-7.682-10.763-11.375l-2.106-2.107c-2.31-2.309-4.622-4.613-6.934-6.918l-4.994-4.989c-3.574-3.57-7.15-7.14-10.726-10.709-5.18-5.167-10.357-10.337-15.532-15.508-8.41-8.403-16.821-16.804-25.234-25.203l-1.523-1.52a650681.988 650681.988 0 0 0-22.927-22.888l-1.52-1.519a74433.54 74433.54 0 0 1-25.145-25.114 30603.034 30603.034 0 0 0-16.862-16.833c-3.5-3.493-6.998-6.988-10.496-10.483a6156.29 6156.29 0 0 0-4.858-4.847 5198.36 5198.36 0 0 1-6.645-6.638l-1.929-1.917c-3.732-3.741-7.252-7.61-10.708-11.607-2.11-2.405-4.332-4.672-6.6-6.927l-2.816-2.806-3.021-2.996-3.236-3.221c-2.308-2.3-4.619-4.597-6.93-6.893-3.666-3.643-7.327-7.29-10.986-10.939a30954.5 30954.5 0 0 0-31.229-31.09c-5.764-5.73-11.522-11.465-17.275-17.206a4820.133 4820.133 0 0 0-10.893-10.832c-2.276-2.26-4.545-4.526-6.812-6.793a837.833 837.833 0 0 0-3.127-3.104c-9.428-9.313-17.823-19.429-24.812-30.718l-1.235-1.992C1.434 649.468-6.032 608.44 2.03 571.87L3 568l.504-2.082c7.694-31.126 25.244-55.94 47.753-78.25 1.483-1.47 2.964-2.945 4.443-4.42 3.14-3.127 6.282-6.25 9.425-9.373a9434.77 9434.77 0 0 0 10.96-10.905c1.445-1.438 2.892-2.872 4.34-4.307l2.7-2.69 2.347-2.332a154.383 154.383 0 0 0 5.669-6.282c3.869-4.432 7.964-8.597 12.133-12.746l2.44-2.441c2.682-2.682 5.368-5.36 8.054-8.037l5.791-5.787c4.149-4.146 8.3-8.29 12.45-12.433 6.011-5.998 12.018-11.999 18.025-18.001 9.757-9.75 19.516-19.499 29.277-29.246l1.768-1.765a1003979.586 1003979.586 0 0 1 26.61-26.571l1.766-1.764c9.725-9.712 19.45-19.426 29.172-29.141 5.989-5.985 11.98-11.968 17.973-17.948 4.107-4.1 8.213-8.2 12.318-12.303 2.365-2.363 4.73-4.726 7.099-7.087a7258.23 7258.23 0 0 0 7.71-7.702l2.246-2.236c3.92-3.928 7.638-7.96 11.264-12.162 3.129-3.53 6.48-6.836 9.822-10.162l2.371-2.371c2.604-2.603 5.211-5.203 7.819-7.802l5.624-5.62c4.027-4.024 8.056-8.047 12.087-12.069 5.833-5.82 11.663-11.644 17.492-17.469 9.467-9.46 18.935-18.918 28.405-28.374l1.715-1.712a840214.242 840214.242 0 0 1 25.831-25.793l1.715-1.712c9.439-9.425 18.876-18.852 28.311-28.28 5.814-5.81 11.63-11.618 17.448-17.424 3.985-3.976 7.969-7.955 11.95-11.935 2.297-2.294 4.594-4.588 6.892-6.88 2.495-2.487 4.986-4.977 7.476-7.467l2.193-2.183c3.76-3.767 7.24-7.62 10.612-11.736 3.519-3.185 7.266-6.073 11-9l2.75-2.227C526.565 15.77 547.757 6.273 570 2l2.784-.537C581.785-.105 590.646-.36 599.75-.313Z" fill="#2F3546"/><path d="m559.125 142.25 2.903 1.624c8.502 4.783 16.903 9.741 25.28 14.74 6.187 3.69 12.406 7.322 18.63 10.948l3.032 1.77A1657.859 1657.859 0 0 0 624 180c-2.328-7.938-5.817-13.551-11-20 8.171-5.191 16.51-10.049 24.938-14.813l3.013-1.705c14.5-8.163 14.5-8.163 20.678-7.173 7.293 2.126 11.939 6.616 15.691 13.054 1.65 6.397.011 11.497-3.129 17.168-1.193 2-2.404 3.989-3.629 5.969l-1.903 3.167a1229.658 1229.658 0 0 1-3.832 6.33c-2.585 4.25-5.115 8.53-7.64 12.815l-1.253 2.098c-4.373 7.367-4.814 13.605-3.934 22.09 1.387 4.362 3.628 8.114 6 12l2.79 4.703c3.476 5.84 6.974 11.666 10.537 17.453a564.026 564.026 0 0 1 3.423 5.656l1.922 3.145c1.86 4.263 2.156 7.925.445 12.3-3.768 5.665-7.759 9.957-14.117 12.743-8.946 1.296-15.322-2.76-22.875-7-1.325-.727-2.651-1.452-3.978-2.177-12.2-6.701-24.156-13.814-36.08-20.99-4.725-2.824-9.486-5.583-14.255-8.333l-2.432-1.404A5354.77 5354.77 0 0 0 578 244c.44 1.587.89 3.17 1.344 4.754l.756 2.674c1.777 5.077 5.078 8.85 8.9 12.572-4.748 2.824-9.51 5.623-14.282 8.407-1.882 1.103-3.76 2.212-5.635 3.326a1315.59 1315.59 0 0 1-9.083 5.33l-2.89 1.733c-5.596 3.23-10.524 5.629-17.11 5.204-7.117-2.152-11.375-7.114-15.04-13.34-1.53-4.238-1.825-7.635-.02-11.864 1.358-2.55 2.81-5.015 4.31-7.483l1.619-2.75c2.804-4.748 5.671-9.457 8.53-14.172l1.64-2.713a680.006 680.006 0 0 1 3.126-5.105c5.15-8.426 7.095-15.628 5.835-25.573-1.49-4.328-3.641-8.088-6-12l-2.086-3.523a824.683 824.683 0 0 0-4.531-7.508c-2.943-4.858-5.707-9.814-8.464-14.779-1.56-2.801-3.14-5.52-4.919-8.19-.7-5.957.653-10.162 4-15 9.843-10.796 19.613-8.342 31.125-1.75Z" fill="#FD6849"/><path d="m635 571 3.25 1.75c10.963 8.97 15.97 20.34 17.75 34.25.486 6.642.352 13.307.293 19.96a3288.034 3288.034 0 0 1-.087 20.403c-.03 5.036-.044 10.07-.06 15.106-.031 9.844-.084 19.687-.146 29.531h-18l-1-14-5 3.188-3.074 1.94a156.177 156.177 0 0 0-4.946 3.274c-11.909 8.121-24.88 10.41-38.898 8.121-9.038-2.326-16.074-7.16-20.863-15.195-4.936-9.429-5.862-19.887-3.563-30.3 3.937-10.978 13.039-18.6 23.282-23.59C599.643 618.7 617.856 614 635 615a931.634 931.634 0 0 0-1.313-7.625l-.357-2.16c-1.094-6.116-2.746-11.381-7.705-15.465l-1.71-1.453c-7.333-4.968-16.644-4.015-25.071-2.867-7.198 1.567-13.361 4.603-19.813 8.047-2.429 1.22-4.383 2.043-7.031 2.523-1.2-1.93-2.385-3.87-3.563-5.813l-2.003-3.269C565 584 565 584 566 581c1.484-1.103 1.484-1.103 3.395-2.121l2.13-1.14c.754-.389 1.51-.777 2.288-1.177l2.325-1.21C592.825 566.85 617.635 561.289 635 571Z" fill="#FBFBFB"/><path d="M522 576c11.564 9.343 15.959 22.71 18 37v23h-83c4.14 19.863 4.14 19.863 17 35 7.859 4.26 14.34 6.18 23.25 6.188l2.2.037c7.048.018 13.211-1.5 19.738-4.225l2.417-1 2.395-1c1.666-.67 3.332-1.336 5-2a403.365 403.365 0 0 1 3.063 5.25l1.722 2.953C535 680 535 680 535.121 682.137c-1.846 3.068-4.95 4.064-8.121 5.426l-2.064.92C509.035 695.47 490.684 698.396 474 692c-15.714-6.928-26.612-17.598-33.09-33.573-3.22-8.591-4.41-16.52-4.285-25.677l.035-3.324c.37-18.426 5.027-33.844 18.063-47.281C473.44 564.518 500.513 560.636 522 576Z" fill="#FCFCFC"/><path d="M865 572.25c10.048 7.623 13.226 19.836 15 31.75.62 6.955.47 13.935.39 20.91a2656.96 2656.96 0 0 1-.115 21.051c-.042 5.196-.06 10.392-.08 15.588-.042 10.15-.112 20.3-.195 30.451h-21l-.044-7.736c-.05-8.462-.117-16.923-.192-25.385a4437.1 4437.1 0 0 1-.11-15.381 3064.1 3064.1 0 0 0-.117-14.862 1064.9 1064.9 0 0 1-.035-5.652c.148-17.558.148-17.558-7.502-32.984-5.54-5.02-12.725-4.573-19.828-4.39-6.372.41-10.919 2.92-16.172 6.39-1.035.675-2.07 1.35-3.138 2.044-4.961 3.803-8.822 7.002-9.951 13.38-.544 5.37-.42 10.73-.302 16.119 0 1.98-.005 3.96-.015 5.939-.014 5.178.045 10.353.118 15.53.063 5.296.057 10.592.058 15.888.01 10.368.102 20.733.23 31.1h-21V569h18c.736 4.415 1.111 7.983 1.063 12.375l-.028 3.21L800 587l1.398-1.285c17.38-15.628 41.296-27.406 63.602-13.465Z" fill="#F9FAFA"/><path d="m605 328 1 40 8-7c6.66-3.738 16.714-2.975 24.023-1.313 8.328 3.075 13.927 8 17.91 15.915 5.288 11.891 6.047 24.396 1.325 36.68-4.188 9.05-9.775 15.423-18.946 19.593-8.236 2.66-16.179 2.085-23.937-1.625-3.719-1.974-6.077-3.703-8.375-7.25l-1 9h-22v-97c21-7 21-7 22-7Z" fill="#FAFAFB"/><path d="M568 329v103h-21l-1-9-1.875 2.188c-5.577 5.452-11.842 8.118-19.625 8.375-10.2-.456-17.527-4.186-24.5-11.563-7.961-9.898-8.799-22.598-7.762-34.805 1.398-9.965 5.988-17.197 13.54-23.722 5.479-3.63 10.582-5.008 17.097-4.91l2.122.018c8.105.244 14.098 2.883 20.003 8.419l1 2 1-34c15-6 15-6 21-6Z" fill="#FCFDFD"/><path d="M328 527h21v147h72v18h-93V527Z" fill="#FDFDFD"/><path d="M759.508 568.027 761 569c-.585 6.142-1.54 12.007-3 18l-2.313-.5c-11.459-1.554-18.14.31-27.812 6.5-5.19 4.61-9.71 12.506-11.875 19-.12 2.57-.185 5.114-.205 7.684l-.03 2.366c-.032 2.581-.057 5.162-.081 7.743l-.063 5.368c-.056 4.71-.105 9.42-.153 14.13-.05 4.806-.106 9.612-.161 14.418-.108 9.43-.209 18.86-.307 28.291h-21V569h18l.184 4.05.254 5.263.119 2.67.127 2.568.11 2.364c.147 2.278.147 2.278 1.206 5.085l1.215-2.125c9.024-15.06 25.737-28.45 44.293-20.848Z" fill="#FBFBFC"/><path d="M689 337v24h18v15h-18c.028 4.61.071 9.215.153 13.824.023 1.567.037 3.133.043 4.7.009 2.257.05 4.512.097 6.769l-.012 2.11c.114 3.83.642 5.5 3.055 8.534 3.305 2.56 5.336 2.75 9.476 2.875L708 415v16c-8.175 3.27-17.761 3.343-26.04.035-6.502-3.433-10.482-8.12-12.96-15.035-.975-3.988-1.121-7.71-1.114-11.81v-2.012c0-2.18.008-4.36.016-6.541l.005-4.553c.003-3.983.013-7.966.024-11.95.01-4.068.015-8.137.02-12.206.01-7.976.028-15.952.049-23.928 2.935-1.007 5.873-2.005 8.813-3l2.525-.867 2.432-.82 2.237-.762C686 337 686 337 689 337Z" fill="#FDFDFD"/><path d="M602 805c5.46 2.022 5.46 2.022 7.164 5.11L610 812l2.16-1.531c7.809-5.297 7.809-5.297 12.59-6.094 8.727 1.678 8.727 1.678 11.543 5.277 3.199 5.462 3.848 9.902 3.805 16.078l-.005 2.274c-.005 2.395-.018 4.79-.03 7.183-.006 1.625-.01 3.25-.014 4.874-.011 3.98-.028 7.96-.049 11.939h-14l-1-34c-7.553-.596-7.553-.596-12 2v32h-14l-.184-6.93c-.061-2.21-.125-4.421-.188-6.632-.044-1.538-.085-3.077-.125-4.615-.058-2.21-.122-4.419-.187-6.628l-.05-2.09c-.074-3.676-.074-3.676-1.266-7.105-4.552-.428-4.552-.428-8.698 1.07-1.979 2.934-1.742 5.497-1.814 9.004l-.054 2.072c-.054 2.18-.088 4.36-.121 6.542-.034 1.48-.068 2.96-.104 4.439-.087 3.624-.147 7.248-.209 10.873h-14v-46h11l2 5 1.688-1.313c5.411-3.949 8.604-5.677 15.312-4.687Z" fill="#92D1CC"/><path d="M635 628c.224 4.695.386 9.387.494 14.087.045 1.595.107 3.19.185 4.783.629 13.131.629 13.131-2.459 17.85-2.293 2.099-4.55 3.697-7.22 5.28l-1.967 1.342c-9.788 6.416-19.502 8.49-31.033 6.658-5.303-1.898-8.96-5.258-12-10-1.851-5.89-1.632-11.972.188-17.813 5.946-10.458 16.44-14.947 27.527-18.085 8.627-2.292 17.33-4.199 26.285-4.102Z" fill="#323848"/><path d="M498 787h14v65h-11l-1-4-1.398 1.094c-4.691 3.337-8.354 4.73-14.145 4.375-5.273-1.006-8.68-3.299-12.062-7.43-4.905-8.051-4.922-18.667-2.766-27.664 2.483-5.702 7.848-10.613 13.371-13.375 6.396-.426 7.784-.108 14 3l1-21Z" fill="#92D1CC"/><path d="M509 587c7.388 5.32 10.84 13.362 13 22v12h-65c1.276-12.756 5.241-23.523 15.313-31.875 10.826-7.764 25.008-9.046 36.687-2.125Z" fill="#2F3545"/><path d="M552.5 807.25c4.452 3.234 6.776 6.522 8.5 11.75.165 2.608.234 5.103.195 7.707l-.008 2.198a1107.04 1107.04 0 0 1-.062 6.908c-.01 1.567-.02 3.134-.027 4.7A2288.68 2288.68 0 0 1 561 852h-12l-1-4-1.398 1.094c-4.685 3.333-8.409 4.754-14.196 4.468-4.078-.953-6.83-3.324-9.406-6.562-1.457-4.37-1.605-8.437-1-13 3.622-6.308 9.234-8.597 16.043-10.602 2.982-.607 5.925-.456 8.957-.398-1.119-3.726-1.119-3.726-4-6-5.83-.466-9.722.778-15 3l-5-9c1.58-.818 3.165-1.629 4.75-2.438l2.672-1.37c6.917-3.197 15.388-3.981 22.078.058Z" fill="#92D2CC"/><path d="M813.375 806.375c4.878 3.046 6.93 7.227 8.625 12.625.584 5.73.476 11.376.313 17.125-.026 1.544-.048 3.089-.069 4.633A842.79 842.79 0 0 1 822 852h-11l-2-4-2.813 1.938c-4.951 3.204-9.397 3.951-15.187 3.062-3.866-2.039-6.362-4.972-8-9-.631-4.027-.9-8.141.91-11.879 4.516-5.794 11.12-7.918 18.09-9.121 3.5-.125 3.5-.125 6 0-1.119-3.726-1.119-3.726-4-6-5.83-.466-9.722.778-15 3-4-6.625-4-6.625-4-10 9.412-4.19 18.3-7.56 28.375-3.625Zm-136.113-.727c5.03 2.243 8.233 5.449 10.738 10.352 1 4 1 4 1 17h-27c2.502 5.811 2.502 5.811 7 9 5.53.453 9.766-.255 15-2 3 5.625 3 5.625 3 9-7.177 4.154-13.79 5.008-22 4-7.049-1.94-11.204-6.8-15.137-12.707-2.418-6.424-1.88-15.623-.058-22.2 5.087-10.244 16.47-15.595 27.457-12.445Z" fill="#93D3CD"/><path d="M451.688 806.063c3.927 2.297 5.679 4.788 7.312 8.937.494 2.946.47 5.797.39 8.777-.005.812-.01 1.623-.017 2.459a685.239 685.239 0 0 1-.123 7.702c-.02 1.75-.038 3.5-.055 5.251-.044 4.271-.112 8.54-.195 12.811h-13l-.076-2.89c-.094-3.54-.194-7.078-.296-10.617a2142.29 2142.29 0 0 1-.125-4.595 2079.93 2079.93 0 0 0-.187-6.605l-.05-2.074c-.093-2.99-.313-5.36-1.266-8.219-1.46.282-2.918.576-4.375.875l-2.46.492c-2.352.5-2.352.5-4.165 2.633-.373 3.205-.373 3.205-.414 6.977l-.059 2.076c-.06 2.19-.106 4.381-.152 6.572-.038 1.484-.077 2.969-.117 4.453-.098 3.64-.177 7.28-.258 10.922h-14v-46h11l2 5 1.941-1.313c6.798-4.376 10.746-5.93 18.747-3.625ZM393 806h14v46h-12v-6l-1.645 1.277-2.168 1.66-2.144 1.653c-4.332 2.99-8.967 3.017-14.043 2.41-4.63-2.143-6.507-4.31-8.404-9.01-1.03-3.437-.965-6.77-.889-10.33l.013-2.324c.017-2.425.054-4.849.092-7.274.016-1.654.03-3.308.042-4.962.032-4.034.084-8.067.146-12.1h13l.044 2.798c.061 3.428.135 6.855.218 10.282.034 1.483.062 2.966.084 4.45.034 2.132.086 4.263.142 6.396l.08 3.888c.18 3.136.18 3.136 1.776 5.136 1.752 1.332 1.752 1.332 4.656.925 3.172-.925 4.123-1.24 6-3.875.509-3.293.509-3.293.512-7.074l.054-2.072c.054-2.18.088-4.36.122-6.542.033-1.48.067-2.96.103-4.439.087-3.624.147-7.248.209-10.873Z" fill="#93D2CD"/><path d="M730 805c4.968 2.484 7.77 5.39 9.568 10.667.626 3.38.554 6.737.53 10.161l-.005 2.27c-.005 2.384-.018 4.768-.03 7.152A4926.83 4926.83 0 0 1 740 852h-14l-.076-3.013c-.094-3.677-.194-7.354-.296-11.031a1919.33 1919.33 0 0 1-.125-4.781c-.058-2.287-.122-4.573-.187-6.859l-.05-2.171c.184-3.36.184-3.36-1.266-6.145-4.746-.36-4.746-.36-9.192 1.073-2.684 2.86-2.354 5.133-2.417 9.001l-.05 2.072c-.049 2.18-.07 4.36-.091 6.542-.028 1.48-.058 2.96-.09 4.439-.074 3.624-.123 7.248-.16 10.873h-13v-45h11v5l2.09-1.531c5.892-4.074 10.624-7.259 17.91-5.469Z" fill="#94D4CE"/><path d="M321 792h37v11h-24v14h21v12h-21v23h-13v-60Z" fill="#94D5CF"/><path d="M536.23 375.684c4.772 2.157 7.263 4.604 9.77 9.316 2.274 6.82 2.088 15.387-.625 22.063-2.406 4.614-5.7 7.6-10.375 9.937-5.908.858-10.408.11-15.27-3.422-4.367-3.983-5.698-7.815-6.07-13.664a229.08 229.08 0 0 1-.097-4.539l-.032-2.208c.09-5.448 1.161-9.695 5.004-13.812 5.808-4.441 10.473-5.885 17.695-3.671Z" fill="#303646"/><path d="M629.375 376.188c4.976 3.436 7.009 7.075 8.625 12.812.859 8.99.5 16.65-5.313 23.875-4.237 3.35-7.782 4.36-13.125 4.125-5.055-.725-8.376-3.063-11.562-7-4.412-7.247-3.885-15.353-2.602-23.543 1.418-4.76 4.286-7.687 8.286-10.39 5.282-2.432 10.344-1.761 15.691.12Z" fill="#323848"/><path d="M755 794h12v12h11v11h-11c.14 3.625.287 7.25.438 10.875l.119 3.129.127 2.988.11 2.761c.072 2.282.072 2.282 1.206 4.247 1.895.465 1.895.465 4.063.625L777 842c1.604 3.508 2.22 6.144 2 10-6.235 2.078-13.52 2.044-19.563-.5-5.89-6.04-6.888-11.58-6.789-19.734l.102-3.266.055-3.36c.046-2.714.112-5.426.195-8.14h-6v-10h7l1-13Z" fill="#92D1CC"/><path d="M886.688 807.5A139.97 139.97 0 0 1 891 810c-1.312 3.44-2.666 6.135-5 9l-2.563-.938c-3.487-1.077-6.819-1.628-10.437-2.062l-1 5 2.887 1.137 3.8 1.55c.626.245 1.252.49 1.897.74 4.407 1.823 7.335 3.943 10.416 7.573 1.687 5.062 1.515 8.734-.5 13.688-2.666 4.095-5.812 6.047-10.5 7.312-9.164 1.255-16.006-.514-24-5 .784-3.861 2.428-6.013 5-9 5.75 1.875 5.75 1.875 8 3 1.373.069 2.75.085 4.125.063L877 842l1-5-2.195-.953C860.58 829.307 860.58 829.307 858 823c-.52-4.687-.473-6.975 1.5-11.25 7.413-8.155 17.482-9.069 27.188-4.25Z" fill="#93D2CD"/><path d="M833 787h14l1 54 3 1c1.203 2.405 1.1 3.95 1.063 6.625l-.028 2.477L852 853c-9.704.459-9.704.459-14-1.063-4.422-4.283-5.19-8.936-5.34-14.872 0-2.333.017-4.666.047-6.999l.013-3.736c.017-3.923.054-7.845.092-11.768.017-2.666.03-5.332.042-7.998A4399.8 4399.8 0 0 1 833 787Z" fill="#91D0CB"/><path d="M496 817c3.29 3.29 2.369 7.468 2.375 11.938l.074 2.787.012 2.677.025 2.453C498 839 498 839 496.159 840.764c-2.93 1.677-4.833 1.652-8.159 1.236-3.136-1.78-3.841-2.523-5-6a125.816 125.816 0 0 1-.313-6.875l-.113-3.68c.498-4.03 1.596-5.599 4.426-8.445 3.119-1.56 5.663-.655 9 0Z" fill="#2F3545"/><path d="M601.46 202.047c3.077 1.155 4.614 2.626 6.852 5.016l2.114 2.222L612 211c-1.385 3.077-2.99 5.366-5.313 7.813l-1.738 1.894C603 222 603 222 600.54 221.953c-3.076-1.155-4.613-2.626-6.851-5.016l-2.114-2.222L590 213c1.385-3.077 2.99-5.366 5.313-7.813l1.738-1.894C599 202 599 202 601.46 202.047Z" fill="#313646"/><path d="M808 831c.606 7.27.606 7.27-2.125 10.563-3.505 1.752-5.168 1.532-8.875.437-1-1-1-1-1.063-4.063L796 835c7.286-4.571 7.286-4.571 12-4Z" fill="#374151"/><path d="M547 831c.358 7.284.358 7.284-1 10-3.323 1.661-6.321 1.237-10 1-1-1-1-1-1.063-4.063L535 835c7.286-4.571 7.286-4.571 12-4Z" fill="#313949"/><path d="M674 816c2.5 1.75 2.5 1.75 4 4v4h-16c1-5 1-5 2.063-6.813 3.148-1.93 6.41-1.833 9.937-1.187Z" fill="#333B4B"/></svg>