<?xml version="1.0" encoding="UTF-8"?>
<svg version="1.1" xmlns="http://www.w3.org/2000/svg" width="225" height="225">
<path d="M0 0 C74.25 0 148.5 0 225 0 C225 74.25 225 148.5 225 225 C150.75 225 76.5 225 0 225 C0 150.75 0 76.5 0 0 Z " fill="#120707" transform="translate(0,0)"/>
<path d="M0 0 C0.83917969 0.67546875 1.67835938 1.3509375 2.54296875 2.046875 C18.21960015 15.36593548 28.30178828 33.43233628 34 53 C34.2947522 53.97972778 34.2947522 53.97972778 34.59545898 54.97924805 C36.34974057 61.6352217 36.33794539 68.3039733 36.31567383 75.15454102 C36.31253241 77.16674008 36.33597795 79.1774367 36.36132812 81.18945312 C36.3728617 104.68334229 27.95450128 128.53117317 12 146 C11.3179248 146.75361816 11.3179248 146.75361816 10.62207031 147.52246094 C-3.76360517 163.22878859 -21.18872296 173.84268645 -42 179 C-42.99 179 -43.98 179 -45 179 C-45.01458252 177.92105469 -45.02916504 176.84210938 -45.04418945 175.73046875 C-45.10250938 171.69710459 -45.17973793 167.66427919 -45.26245117 163.63134766 C-45.29554293 161.89152828 -45.32362307 160.15160561 -45.34643555 158.41162109 C-45.38027355 155.89896959 -45.43260026 153.38725134 -45.48828125 150.875 C-45.49467117 150.10696045 -45.5010611 149.3389209 -45.50764465 148.54760742 C-45.65336574 143.0986545 -46.96007919 139.04806613 -49 134 C-49 133.01 -49 132.02 -49 131 C-48.41734375 130.91363281 -47.8346875 130.82726562 -47.234375 130.73828125 C-35.10171685 128.65894204 -25.27008996 124.3351773 -17 115 C-11.29414656 106.75132058 -10.65565901 97.35560776 -10.6875 87.625 C-10.67138672 86.64789063 -10.65527344 85.67078125 -10.63867188 84.6640625 C-10.63315073 76.36026347 -11.73836468 68.8078329 -16.75 62 C-19.45318211 57.98960743 -19.15426007 55.18141245 -18.40234375 50.51953125 C-17.46383527 44.64246356 -17.80687008 38.81650837 -19 33 C-27.2637466 35.00854952 -33.24155765 38.86233648 -38 46 C-44.2672522 45.16436637 -44.2672522 45.16436637 -47.28125 44.48828125 C-59.56094783 41.81630996 -72.23071812 41.89138768 -84.30078125 45.44140625 C-87.31347278 46.06487208 -89.09546592 45.99430087 -92 45 C-93.484375 43.546875 -93.484375 43.546875 -94.75 41.75 C-98.09015672 37.53131248 -102.09280922 35.1297208 -107 33 C-107.66 33 -108.32 33 -109 33 C-110.94960169 40.3632278 -111.86904918 47.12270366 -110.1875 54.625 C-109.96081578 58.70531587 -111.21543606 59.80802028 -113.65234375 62.91015625 C-118.55378417 70.51094066 -118.28927655 80.45909457 -118.375 89.1875 C-118.38893799 90.10152588 -118.40287598 91.01555176 -118.41723633 91.95727539 C-118.34870138 101.83965843 -116.00813797 109.20565886 -110 117 C-110 117.66 -110 118.32 -110 119 C-109.41476563 119.28101563 -108.82953125 119.56203125 -108.2265625 119.8515625 C-106.16500268 120.91489336 -104.30158041 122.08788032 -102.375 123.375 C-95.4369001 127.7467767 -87.96407384 130.23020581 -80 132 C-80.680625 133.7634375 -80.680625 133.7634375 -81.375 135.5625 C-82.44136901 138.35489885 -83.22946445 140.94845307 -83.9375 143.875 C-85 147 -85 147 -86.77734375 148.16796875 C-91.69099859 150.00735096 -96.71534696 149.75038458 -101.6640625 148.125 C-107.52401767 145.43402361 -111.22290469 142.15368727 -115 137 C-119.95672199 130.55739829 -119.95672199 130.55739829 -127.31640625 127.6015625 C-129.54425176 127.34356474 -131.76199876 127.14139877 -134 127 C-132.9790625 127.9590625 -132.9790625 127.9590625 -131.9375 128.9375 C-126.67318364 134.24642921 -122.43587317 139.95158787 -119.0625 146.625 C-115.5281522 153.30099029 -111.0129153 158.05147534 -103.9375 160.9375 C-97.4947235 162.79773829 -90.62238058 162.17898326 -84 162 C-84 167.28 -84 172.56 -84 178 C-101.29969648 177.39299311 -117.19877945 166.80243349 -130 156 C-130.88558594 155.33291016 -130.88558594 155.33291016 -131.7890625 154.65234375 C-149.30003338 141.08341608 -160.33815428 117.29652382 -164 96 C-164.54835095 91.00157017 -164.82436534 86.02421582 -165 81 C-165.05285156 79.906875 -165.10570312 78.81375 -165.16015625 77.6875 C-165.91149348 51.03136181 -153.39807817 25.71512342 -135.5859375 6.53515625 C-98.50285247 -29.81971109 -40.49854244 -33.00347782 0 0 Z " fill="#FCFCFC" transform="translate(177,34)"/>
<path d="M0 0 C74.25 0 148.5 0 225 0 C225 74.25 225 148.5 225 225 C150.75 225 76.5 225 0 225 C0 150.75 0 76.5 0 0 Z M30.67919922 39.484375 C12.90229258 60.50611454 3.76067665 85.48084217 3.875 112.9375 C3.87113281 113.86240234 3.86726562 114.78730469 3.86328125 115.74023438 C3.89891811 141.1671322 13.21966862 164.18463275 29 184 C29.66773437 184.83917969 30.33546875 185.67835938 31.0234375 186.54296875 C48.24752527 206.96581568 74.58115077 220.2047654 101 223 C126.81618021 225.01773355 153.90030927 219.71996826 175 204 C175.79921875 203.41992188 176.5984375 202.83984375 177.421875 202.2421875 C200.98591272 184.30650274 217.52912635 158.1757657 221.71875 128.56640625 C224.06185133 98.85457964 218.79707694 69.43573026 199.9375 45.5 C198.6363941 43.99010607 197.32434373 42.48955361 196 41 C195.41089844 40.26910156 194.82179687 39.53820313 194.21484375 38.78515625 C177.82858748 18.98944539 151.90366146 5.95699452 126.5234375 3.2109375 C89.96400194 0.15488561 55.63039165 11.44310883 30.67919922 39.484375 Z " fill="#FDFDFD" transform="translate(0,0)"/>
<path d="M0 0 C0 3 0 3 -2.625 5.91796875 C-3.74249406 7.01550756 -4.86785643 8.10507895 -6 9.1875 C-6.57234375 9.74630859 -7.1446875 10.30511719 -7.734375 10.88085938 C-9.14962788 12.26073093 -10.57397155 13.63126734 -12 15 C-12 10.09687565 -8.29800369 7.38658643 -5 4 C-3.37458956 2.61667196 -1.72614587 1.25537882 0 0 Z " fill="#1C1717" transform="translate(43,28)"/>
</svg>
