<?xml version="1.0" encoding="UTF-8"?>
<svg version="1.1" xmlns="http://www.w3.org/2000/svg" width="225" height="225">
<path d="M0 0 C74.25 0 148.5 0 225 0 C225 74.25 225 148.5 225 225 C150.75 225 76.5 225 0 225 C0 150.75 0 76.5 0 0 Z " fill="#F6DE1D" transform="translate(0,0)"/>
<path d="M0 0 C4.21384621 3.32296963 6.34961675 6.9714084 8.91015625 11.64453125 C6.45548025 13.3168166 3.99675951 14.98249985 1.53515625 16.64453125 C0.48714844 17.35996094 0.48714844 17.35996094 -0.58203125 18.08984375 C-1.5875 18.76660156 -1.5875 18.76660156 -2.61328125 19.45703125 C-3.54019775 20.08544922 -3.54019775 20.08544922 -4.48583984 20.7265625 C-6.08984375 21.64453125 -6.08984375 21.64453125 -8.08984375 21.64453125 C-9.69212758 19.93513096 -11.10279117 18.11151597 -12.5546875 16.2734375 C-15.06045493 13.6146461 -17.38456016 13.61601031 -20.96484375 13.26953125 C-24.37016061 13.3260771 -25.10703886 13.65635289 -28.08984375 15.70703125 C-30.61959508 19.42260351 -30.87765655 21.23277955 -30.08984375 25.64453125 C-25.79411244 31.93470924 -17.79985154 34.46827857 -11.10205078 37.56298828 C5.2440584 45.144407 5.2440584 45.144407 10.91015625 52.64453125 C11.35875 53.20011719 11.80734375 53.75570312 12.26953125 54.328125 C16.89546192 61.44128551 15.87997858 72.24238045 14.4375 80.27734375 C12.1466487 87.27335669 7.46777838 92.07414031 1.09765625 95.45703125 C-10.35553283 100.61520826 -24.80831598 102.01921245 -36.79296875 97.67578125 C-45.13295509 93.93129759 -51.80236582 89.23751522 -57.08984375 81.64453125 C-57.45806002 80.32040676 -57.79726706 78.98739676 -58.08984375 77.64453125 C-55.46770047 76.13933738 -52.84240167 74.64021806 -50.21484375 73.14453125 C-49.46847656 72.71527344 -48.72210938 72.28601563 -47.953125 71.84375 C-47.23769531 71.43769531 -46.52226562 71.03164062 -45.78515625 70.61328125 C-45.12531738 70.23623047 -44.46547852 69.85917969 -43.78564453 69.47070312 C-42.08984375 68.64453125 -42.08984375 68.64453125 -40.08984375 68.64453125 C-38.33186709 70.55202654 -36.74966187 72.57058596 -35.13671875 74.6015625 C-31.68517799 78.04651635 -28.45118586 79.48833677 -23.6171875 80.04296875 C-22.43253906 80.03523438 -21.24789062 80.0275 -20.02734375 80.01953125 C-18.84011719 80.02726562 -17.65289062 80.035 -16.4296875 80.04296875 C-12.84725481 79.61559082 -10.97023016 78.76692124 -8.08984375 76.64453125 C-6.03553794 74.02996022 -6.08984375 72.58098696 -6.08984375 69.20703125 C-7.33724362 64.76316922 -9.3585071 63.08458865 -13.08984375 60.64453125 C-18.24913257 57.93995339 -23.57313482 55.58909993 -28.88085938 53.19335938 C-38.55249574 48.71307355 -45.33958446 44.22599069 -50.17578125 34.44921875 C-51.3351774 30.89175535 -51.43262365 27.53439749 -51.40234375 23.83203125 C-51.3967041 23.11861572 -51.39106445 22.4052002 -51.38525391 21.67016602 C-51.20302017 13.78088864 -49.33833133 8.13097003 -43.96875 2.25 C-31.95565138 -8.01483063 -13.04780772 -8.4627837 0 0 Z " fill="#020200" transform="translate(183.08984375,94.35546875)"/>
<path d="M0 0 C6.93 0 13.86 0 21 0 C21.04529681 9.88411317 21.08194258 19.76815669 21.10362434 29.65235043 C21.11403376 34.24263828 21.12814073 38.83285105 21.15087891 43.4230957 C21.17270905 47.85810134 21.18458998 52.29303504 21.18975449 56.72809029 C21.19343205 58.41485284 21.20061316 60.10161174 21.21146011 61.78834343 C21.36606405 86.84020277 21.36606405 86.84020277 13.46484375 95.7265625 C5.69354795 102.91368344 -3.84436678 104.35034733 -14.1328125 104.2109375 C-22.40339092 103.60247533 -29.78821598 100.51369782 -36 95 C-42 87.65154639 -42 87.65154639 -42 84 C-39.59306422 82.60493523 -37.17701201 81.23430617 -34.75 79.875 C-34.06808594 79.47667969 -33.38617188 79.07835937 -32.68359375 78.66796875 C-27.59261856 75.85063297 -27.59261856 75.85063297 -24.61328125 76.6015625 C-22.49274767 78.43970057 -21.39233075 80.57855521 -20 83 C-15.55521859 85.96318761 -11.21351364 85.64094171 -6 85 C-3.38689452 83.25792968 -2.43233563 82.2601607 -1.42689514 79.32952881 C-0.8263019 76.05214493 -0.82176452 72.79840783 -0.79467773 69.47753906 C-0.78477814 68.72593002 -0.77487854 67.97432098 -0.76467896 67.19993591 C-0.73315534 64.72186404 -0.70834277 62.24377302 -0.68359375 59.765625 C-0.66301633 58.04497791 -0.64201964 56.3243358 -0.62062073 54.60369873 C-0.56548149 50.07952908 -0.51603633 45.55531443 -0.46777344 41.03106689 C-0.41749887 36.4125977 -0.36184391 31.7941937 -0.30664062 27.17578125 C-0.1991587 18.11724117 -0.098189 9.05864558 0 0 Z " fill="#040300" transform="translate(93,89)"/>
<path d="M0 0 C0.33 0 0.66 0 1 0 C1 9.9 1 19.8 1 30 C-8.9 30 -18.8 30 -29 30 C-29 29.67 -29 29.34 -29 29 C-27.96552734 28.77957031 -27.96552734 28.77957031 -26.91015625 28.5546875 C-18.05385895 26.44083876 -11.09526698 23.32571681 -5.625 15.8125 C-2.59084503 10.87356997 -1.19993995 5.63129715 0 0 Z " fill="#FEFDF7" transform="translate(224,195)"/>
<path d="M0 0 C0.33 0 0.66 0 1 0 C1.21914063 0.845625 1.43828125 1.69125 1.6640625 2.5625 C4.38843701 12.30822995 7.20818354 18.83195941 15.875 24.375 C20.18814724 26.77990634 24.15732719 28.10320874 29 29 C29 29.33 29 29.66 29 30 C19.43 30 9.86 30 0 30 C0 20.1 0 10.2 0 0 Z " fill="#FEFDF8" transform="translate(0,195)"/>
<path d="M0 0 C9.9 0 19.8 0 30 0 C30 9.57 30 19.14 30 29 C29.67 29 29.34 29 29 29 C28.85304687 28.38253906 28.70609375 27.76507812 28.5546875 27.12890625 C26.0353726 17.61632067 22.05528178 10.46015604 13.5234375 5.21875 C9.19958213 3.13044833 4.68086131 1.99741718 0 1 C0 0.67 0 0.34 0 0 Z " fill="#FEFDF8" transform="translate(195,0)"/>
<path d="M0 0 C8.91 0 17.82 0 27 0 C24.40144578 1.73236948 21.93239121 3.03530268 19.125 4.375 C10.56703892 8.67878622 5.31230418 14.18363413 2.17578125 23.4296875 C1.71398417 25.27032549 1.34554789 27.13404142 1 29 C0.67 29 0.34 29 0 29 C0 19.43 0 9.86 0 0 Z " fill="#FEFEFA" transform="translate(0,0)"/>
</svg>
