<?xml version="1.0" encoding="UTF-8"?>
<svg version="1.1" xmlns="http://www.w3.org/2000/svg" width="329" height="153">
<path d="M0 0 C108.57 0 217.14 0 329 0 C329 50.49 329 100.98 329 153 C220.43 153 111.86 153 0 153 C0 102.51 0 52.02 0 0 Z " fill="#FEFDFD" transform="translate(0,0)"/>
<path d="M0 0 C5.67025419 6.0154001 6.38293146 10.1020966 6.31445312 18.22265625 C6.3214624 19.24777313 6.32847168 20.27289001 6.33569336 21.32907104 C6.3532627 24.7092416 6.34165378 28.08857129 6.328125 31.46875 C6.3308202 33.82234864 6.33470286 36.17594619 6.33972168 38.52954102 C6.34561532 43.4589296 6.33705772 48.38802799 6.31835938 53.31738281 C6.29557036 59.63258463 6.3086941 65.94710645 6.33264923 72.26228333 C6.34711056 77.12134922 6.34249958 81.98025418 6.33213806 86.83932495 C6.32947173 89.16771526 6.33273723 91.49612022 6.34205627 93.82449341 C6.35222691 97.08000333 6.33671224 100.33441549 6.31445312 103.58984375 C6.32255005 104.55002411 6.33064697 105.51020447 6.33898926 106.4994812 C6.25217312 113.3611343 4.79318418 116.46517618 0.296875 121.62890625 C-16.7182357 136.8272994 -45.85384874 136.82107846 -67.203125 135.90625 C-82.98372531 134.67283011 -101.40690273 131.22635581 -112.203125 118.65625 C-114.65416084 115.28607572 -115.32775858 113.75354305 -115.35029602 109.6819458 C-115.36102898 108.35297775 -115.36102898 108.35297775 -115.37197876 106.99716187 C-115.37466766 106.0226004 -115.37735657 105.04803894 -115.38012695 104.04394531 C-115.38669815 103.01941254 -115.39326935 101.99487976 -115.40003967 100.93930054 C-115.41980318 97.53765801 -115.43144227 94.13605969 -115.44140625 90.734375 C-115.44751954 88.99418217 -115.44751954 88.99418217 -115.45375633 87.21883392 C-115.4746304 81.07818275 -115.48892617 74.93755401 -115.49829102 68.796875 C-115.50935635 62.45024697 -115.54375427 56.10396946 -115.58346272 49.75746536 C-115.6095947 44.88127994 -115.61797985 40.00517843 -115.62157249 35.12892914 C-115.62644751 32.78935123 -115.63808738 30.4497773 -115.65661049 28.11026764 C-115.68092773 24.8352728 -115.68005003 21.56119008 -115.6730957 18.28613281 C-115.68590576 17.31966827 -115.69871582 16.35320374 -115.71191406 15.35745239 C-115.65770263 8.35242352 -114.24428863 5.00986053 -109.30078125 -0.03515625 C-83.35319258 -20.70358101 -25.94718533 -21.17290323 0 0 Z " fill="#DB7533" transform="translate(136.203125,14.09375)"/>
<path d="M0 0 C1.29357422 -0.01160156 2.58714844 -0.02320313 3.91992188 -0.03515625 C17.85792154 0.00676255 37.69402673 2.22838636 48.4375 12.375 C49.75 15.75 49.75 15.75 49.4375 19.375 C44.47608278 27.45446203 32.2422429 29.11457427 23.71484375 31.3515625 C6.85366 35.08299303 -10.85606177 34.61530513 -27.5625 30.375 C-28.74585937 30.08496094 -29.92921875 29.79492188 -31.1484375 29.49609375 C-38.47582158 27.49238117 -44.1607393 24.7767607 -49.5625 19.375 C-50.125 16.6875 -50.125 16.6875 -49.5625 13.375 C-38.35196641 0.63006377 -15.59957221 -0.14032599 0 0 Z " fill="#FEFDFC" transform="translate(81.5625,10.625)"/>
<path d="M0 0 C3.169433 1.04838825 6.32965523 2.11543483 9.48046875 3.21875 C10.70378906 3.6415625 11.92710938 4.064375 13.1875 4.5 C15.00314453 5.13421875 15.00314453 5.13421875 16.85546875 5.78125 C27.12153997 8.95788797 37.15697699 9.34461556 47.81396484 9.31567383 C50.23190881 9.31252357 52.64861342 9.33601478 55.06640625 9.36132812 C68.0882973 9.41595636 80.23946779 8.06446353 92.3125 2.8125 C98.82180851 0 98.82180851 0 101 0 C101.1083667 2.7302389 101.18746694 5.45614543 101.25 8.1875 C101.28351563 8.95642578 101.31703125 9.72535156 101.3515625 10.51757812 C101.41876575 14.43216751 101.31753254 16.48059247 99.23046875 19.89453125 C85.29245296 33.05143232 61.53874599 32.86444577 43.56335449 32.47901917 C29.19531802 32.04652959 12.70639511 30.08661783 1.6953125 19.859375 C-0.65591581 15.89370881 -0.4467263 12.70085536 -0.25 8.1875 C-0.23195313 7.39923828 -0.21390625 6.61097656 -0.1953125 5.79882812 C-0.14844048 3.86535739 -0.0767041 1.93251715 0 0 Z " fill="#FEFCFB" transform="translate(31,44)"/>
<path d="M0 0 C2.41170513 0.95366196 4.81124718 1.91659759 7.18359375 2.96484375 C35.84770093 15.3346231 70.51362045 12.06490223 98.91796875 0.84765625 C99.60503906 0.56792969 100.29210937 0.28820312 101 0 C102.1856868 15.56213928 102.1856868 15.56213928 99.74609375 20.578125 C88.01684024 31.82604845 64.36918949 33.45801604 48.95507812 33.28540039 C33.47879357 32.87821313 15.2516028 31.3476375 3 21 C2.475271 20.56204102 1.95054199 20.12408203 1.40991211 19.67285156 C-0.37310286 17.55731588 -0.35113976 16.50356855 -0.29296875 13.76953125 C-0.28330078 12.96708984 -0.27363281 12.16464844 -0.26367188 11.33789062 C-0.23853516 10.50451172 -0.21339844 9.67113281 -0.1875 8.8125 C-0.17396484 7.96751953 -0.16042969 7.12253906 -0.14648438 6.25195312 C-0.11115799 4.16769616 -0.05735139 2.08376723 0 0 Z " fill="#FEFCFB" transform="translate(31,76)"/>
<path d="M0 0 C5.60714478 4.58004162 11.16071285 10.86119602 11.98608398 18.35131836 C12.5539105 30.48114791 12.18925055 39.96975224 3.9140625 49.6328125 C-0.54713362 53.95096426 -5.235905 56.0019181 -11.22265625 57.45703125 C-11.22265625 60.09703125 -11.22265625 62.73703125 -11.22265625 65.45703125 C-15.18265625 65.45703125 -19.14265625 65.45703125 -23.22265625 65.45703125 C-23.22265625 55.55703125 -23.22265625 45.65703125 -23.22265625 35.45703125 C-19.59265625 35.45703125 -15.96265625 35.45703125 -12.22265625 35.45703125 C-12.22265625 38.09703125 -12.22265625 40.73703125 -12.22265625 43.45703125 C-7.78221112 42.10022857 -5.7710111 40.32350067 -3.22265625 36.45703125 C-0.72938429 30.97183293 -0.08497727 25.06399075 -1.91015625 19.27734375 C-4.11982264 14.3976638 -6.85840363 11.52129373 -11.22265625 8.45703125 C-16.55992799 6.67794067 -21.40119586 6.54630105 -26.47265625 9.08203125 C-31.71922383 13.6131578 -35.0240278 17.50498624 -36.22265625 24.45703125 C-36.31693966 30.42045677 -34.56860547 34.58150524 -31.22265625 39.45703125 C-30.17271484 40.09125 -30.17271484 40.09125 -29.1015625 40.73828125 C-27.22265625 42.45703125 -27.22265625 42.45703125 -26.83203125 45.59375 C-26.90164062 47.35138672 -26.90164062 47.35138672 -26.97265625 49.14453125 C-27.00875 50.32402344 -27.04484375 51.50351563 -27.08203125 52.71875 C-27.15164062 54.07419922 -27.15164062 54.07419922 -27.22265625 55.45703125 C-35.95618456 53.93049857 -41.00670183 48.33103741 -46.22265625 41.45703125 C-50.72216775 34.56575284 -50.06131279 25.33413239 -49.22265625 17.45703125 C-47.32942415 11.30987025 -44.16281232 6.59297587 -39.22265625 2.45703125 C-38.30806641 1.68552734 -38.30806641 1.68552734 -37.375 0.8984375 C-26.26883333 -8.02501433 -11.67834009 -8.1071078 0 0 Z " fill="#DB7635" transform="translate(261.22265625,50.54296875)"/>
<path d="M0 0 C3.14076414 1.03415405 6.26475017 2.09560423 9.375 3.21875 C10.57125 3.6415625 11.7675 4.064375 13 4.5 C14.175625 4.9228125 15.35125 5.345625 16.5625 5.78125 C27.67617015 9.15909095 39.35390776 9.37643769 50.875 9.3125 C51.5772168 9.31034485 52.27943359 9.3081897 53.00292969 9.30596924 C68.34803246 9.23044856 81.59712967 6.98422048 95.8671875 1.20703125 C99 0 99 0 101 0 C101.10854617 2.39706123 101.18753157 4.78915838 101.25 7.1875 C101.28351563 7.86103516 101.31703125 8.53457031 101.3515625 9.22851562 C101.42062631 12.76803572 101.12626669 14.79594401 99.25 17.828125 C91.71974702 25.09691086 80.88765249 26.83342523 71 29 C70.22696533 29.17797119 69.45393066 29.35594238 68.6574707 29.53930664 C63.33125197 30.46264837 57.89123417 30.1846862 52.5 30.1875 C51.29601562 30.19974609 50.09203125 30.21199219 48.8515625 30.22460938 C33.72788447 30.2490024 13.31353845 28.92881397 1.73046875 17.82421875 C-0.4725808 14.22872253 -0.45278089 11.2626159 -0.25 7.1875 C-0.23195313 6.49462891 -0.21390625 5.80175781 -0.1953125 5.08789062 C-0.14851064 3.39132336 -0.07677624 1.69547524 0 0 Z " fill="#FEFBFA" transform="translate(31,109)"/>
<path d="M0 0 C1.02480469 0.00322266 2.04960937 0.00644531 3.10546875 0.00976562 C4.16894531 0.01814453 5.23242188 0.02652344 6.328125 0.03515625 C7.40707031 0.03966797 8.48601562 0.04417969 9.59765625 0.04882812 C12.25783625 0.06059883 14.91798769 0.07853386 17.578125 0.09765625 C17.578125 3.72765625 17.578125 7.35765625 17.578125 11.09765625 C15.55558594 11.18853516 15.55558594 11.18853516 13.4921875 11.28125 C11.7291554 11.36565047 9.96613516 11.45029872 8.203125 11.53515625 C7.31367188 11.57447266 6.42421875 11.61378906 5.5078125 11.65429688 C4.23164063 11.71713867 4.23164063 11.71713867 2.9296875 11.78125 C2.14416504 11.81790771 1.35864258 11.85456543 0.54931641 11.89233398 C-1.49710996 11.98854725 -1.49710996 11.98854725 -3.421875 13.09765625 C-3.39593948 15.89350516 -2.91886347 17.59511483 -0.93603516 19.60009766 C1.0961709 21.25540858 3.16363637 22.84437021 5.265625 24.41015625 C11.54987245 29.11619415 17.00985542 33.9611171 20.578125 41.09765625 C21.00676936 46.56287185 20.38649289 50.35853543 17.578125 55.09765625 C12.21001442 59.51979405 7.28226246 61.235471 0.375 61.1953125 C-0.6046875 61.19208984 -1.584375 61.18886719 -2.59375 61.18554688 C-3.60953125 61.17716797 -4.6253125 61.16878906 -5.671875 61.16015625 C-7.21875 61.15338867 -7.21875 61.15338867 -8.796875 61.14648438 C-11.33856654 61.13471728 -13.88022818 61.11678235 -16.421875 61.09765625 C-16.421875 57.13765625 -16.421875 53.17765625 -16.421875 49.09765625 C-8.501875 48.76765625 -0.581875 48.43765625 7.578125 48.09765625 C5.80560922 43.66636679 5.28380286 42.43550223 2.0234375 39.50390625 C1.32605469 38.86582031 0.62867188 38.22773437 -0.08984375 37.5703125 C-1.18232422 36.59384766 -1.18232422 36.59384766 -2.296875 35.59765625 C-16.75590297 22.5353859 -16.75590297 22.5353859 -17.796875 12.47265625 C-17.38487211 8.76463026 -16.75173021 6.9898903 -14.421875 4.09765625 C-9.67821119 0.6919489 -5.74961632 -0.03194231 0 0 Z " fill="#DB7634" transform="translate(185.421875,45.90234375)"/>
<path d="M0 0 C3.96 0 7.92 0 12 0 C12.01401855 1.86918091 12.01401855 1.86918091 12.02832031 3.77612305 C12.06824865 8.40766908 12.13401563 13.03855287 12.20751953 17.66967773 C12.23571261 19.67252076 12.25693542 21.6754747 12.27099609 23.6784668 C12.29244854 26.56096107 12.33911056 29.44212409 12.390625 32.32421875 C12.39185364 33.21711105 12.39308228 34.11000336 12.39434814 35.029953 C12.49148111 39.17018351 12.6688794 41.45611532 14.86328125 45.06054688 C17.56008451 47.50837652 19.14817025 47.68386322 22.75 47.8125 C24.4825 47.874375 26.215 47.93625 28 48 C28 52.29 28 56.58 28 61 C24.79024078 61.1354964 21.58624371 61.23434038 18.375 61.3125 C17.47136719 61.35439453 16.56773437 61.39628906 15.63671875 61.43945312 C11.23789357 61.51972366 8.01619991 61.53958525 4.4765625 58.73046875 C0.84860965 54.73056489 -0.25323603 52.16662184 -0.22705078 46.77246094 C-0.22689972 45.73168396 -0.22674866 44.69090698 -0.22659302 43.61859131 C-0.21627045 42.50179993 -0.20594788 41.38500854 -0.1953125 40.234375 C-0.1924826 39.08584045 -0.18965271 37.93730591 -0.18673706 36.75396729 C-0.17554263 33.08587219 -0.15043904 29.4180213 -0.125 25.75 C-0.11496926 23.26302436 -0.10584358 20.77604489 -0.09765625 18.2890625 C-0.07560564 12.19261425 -0.04108052 6.09634853 0 0 Z " fill="#DA7431" transform="translate(280,46)"/>
</svg>
